# xmcd CD database file
#
# Track frame offsets:
#	150
#	16080
#	33530
#	55652
#	75705
#	91725
#
# Disc length: 1399 seconds
#
# Revision: 1
# Processed by: cddbd v1.4PL0 Copyright (c) Steve Scherf et al.
# Submitted via: CDex 1.40Beta9
#
DISCID=37057506
DTITLE=Shannon Lawson - Advance Sampler
DYEAR=2002
DGENRE=Country
TTITLE0=This Ole Heart
TTITLE1=Dream Your Way To Me
TTITLE2=Goodbye On A Bad Day
TTITLE3=Where Would I Go
TTITLE4=Superstart
TTITLE5=Chase The Sun
EXTD=YEAR: 2002 ID3G: 2
EXTT0=
EXTT1=
EXTT2=
EXTT3=
EXTT4=
EXTT5=
PLAYORDER=
